<?xml version="1.0" encoding="UTF-8" standalone="no"?>
<!DOCTYPE svg PUBLIC "-//W3C//DTD SVG 1.1//EN" "http://www.w3.org/Graphics/SVG/1.1/DTD/svg11.dtd">
<svg version="1.1" xmlns="http://www.w3.org/2000/svg" xmlns:xlink="http://www.w3.org/1999/xlink" preserveAspectRatio="xMidYMid meet" viewBox="0 0 640 640" width="640" height="640"><defs><path d="M640 639.99L0 639.99L0 -0.01L406.85 -0.01L640 200.75L640 639.99Z" id="c1tz5AinrV"></path><clipPath id="clipb7foUNqaHC"><use xlink:href="#c1tz5AinrV" opacity="1"></use></clipPath><path d="M14.01 627.98L0 627.98L0 12L14.01 12L14.01 627.98Z" id="a2s2fYZAuZ"></path><path d="M640.02 628.48L6.12 628.48L6.12 206.33L640.02 206.33L640.02 628.48Z" id="aMCnGYENl"></path><path d="" id="brWKqUBv1"></path><path d="M640.02 206.33L640.02 216.35L628.08 206.33L640.02 206.33Z" id="a4Pqhwx035"></path><path d="M0 12L640 12L640 627.98L0 627.98L0 12Z" id="d1SiOY1DGu"></path><path d="M0 0L640 0L640 12L0 12L0 0Z" id="bdjXLpHZE"></path></defs><g><g><g><use xlink:href="#c1tz5AinrV" opacity="1" fill="#f8f8f8" fill-opacity="1"></use><g clip-path="url(#clipb7foUNqaHC)"><use xlink:href="#c1tz5AinrV" opacity="1" fill-opacity="0" stroke="#f9f9ff" stroke-width="24" stroke-opacity="1"></use></g></g><g><use xlink:href="#a2s2fYZAuZ" opacity="1" fill="#f8f8f8" fill-opacity="1"></use></g><g><use xlink:href="#aMCnGYENl" opacity="1" fill="#f8f8f8" fill-opacity="1"></use></g><g><g><use xlink:href="#brWKqUBv1" opacity="1" fill-opacity="0" stroke="#dedede" stroke-width="2" stroke-opacity="1"></use></g></g><g><use xlink:href="#a4Pqhwx035" opacity="1" fill="#e0e0e0" fill-opacity="1"></use></g><g><use xlink:href="#d1SiOY1DGu" opacity="1" fill="#e9e9f2" fill-opacity="1"></use></g><g><use xlink:href="#bdjXLpHZE" opacity="1" fill="#f9f9ff" fill-opacity="1"></use></g></g></g></svg>