<?xml version="1.0" encoding="UTF-8" standalone="no"?>
<!DOCTYPE svg PUBLIC "-//W3C//DTD SVG 1.1//EN" "http://www.w3.org/Graphics/SVG/1.1/DTD/svg11.dtd">
<svg version="1.1" xmlns="http://www.w3.org/2000/svg" xmlns:xlink="http://www.w3.org/1999/xlink" preserveAspectRatio="xMidYMid meet" viewBox="269.2724699142359 275.4442674667303 99.80735669303238 90.16775123020983" width="99.81" height="90.17"><defs><path d="M295.71 288.67C295.71 295.96 289.79 301.89 282.49 301.89C275.2 301.89 269.27 295.96 269.27 288.67C269.27 281.37 275.2 275.44 282.49 275.44C289.79 275.44 295.71 281.37 295.71 288.67Z" id="cqC0sqxpR"></path><path d="M369.08 288.67C369.08 295.96 363.16 301.89 355.86 301.89C348.56 301.89 342.64 295.96 342.64 288.67C342.64 281.37 348.56 275.44 355.86 275.44C363.16 275.44 369.08 281.37 369.08 288.67Z" id="dM1V2DOwn"></path><path d="M332.58 352.39C332.58 359.69 326.66 365.61 319.36 365.61C312.06 365.61 306.14 359.69 306.14 352.39C306.14 345.09 312.06 339.17 319.36 339.17C326.66 339.17 332.58 345.09 332.58 352.39Z" id="bgGWpFQW8"></path><path d="M293.32 283.44L338.24 283.44L338.24 293.61L293.32 293.61L293.32 283.44Z" id="c1Jw2NySKR"></path><path d="M355.25 300.33L332.69 339.17L323.9 334.06L346.46 295.22L355.25 300.33Z" id="bs4msDfas"></path><path d="M296.32 301.89L318.56 340.91L309.73 345.94L287.49 306.92L296.32 301.89Z" id="b3Im65kwjK"></path><path d="M288.45 288.67C288.45 292.03 285.72 294.77 282.35 294.77C278.98 294.77 276.25 292.03 276.25 288.67C276.25 285.3 278.98 282.56 282.35 282.56C285.72 282.56 288.45 285.3 288.45 288.67Z" id="aKDpnZt4v"></path><path d="M361.96 288.67C361.96 292.03 359.23 294.77 355.86 294.77C352.49 294.77 349.76 292.03 349.76 288.67C349.76 285.3 352.49 282.56 355.86 282.56C359.23 282.56 361.96 285.3 361.96 288.67Z" id="beePkf1cD"></path><path d="M325.04 352.64C325.04 356.01 322.31 358.75 318.94 358.75C315.57 358.75 312.84 356.01 312.84 352.64C312.84 349.28 315.57 346.54 318.94 346.54C322.31 346.54 325.04 349.28 325.04 352.64Z" id="aW8ssLpcL"></path></defs><g><g><g><use xlink:href="#cqC0sqxpR" opacity="1" fill="#ffffff" fill-opacity="1"></use></g><g><use xlink:href="#dM1V2DOwn" opacity="1" fill="#ffffff" fill-opacity="1"></use></g><g><use xlink:href="#bgGWpFQW8" opacity="1" fill="#ffffff" fill-opacity="1"></use></g><g><use xlink:href="#c1Jw2NySKR" opacity="1" fill="#ffffff" fill-opacity="1"></use></g><g><g><use xlink:href="#bs4msDfas" opacity="1" fill="#ffffff" fill-opacity="1"></use></g><g><use xlink:href="#b3Im65kwjK" opacity="1" fill="#ffffff" fill-opacity="1"></use></g></g></g><g><g><use xlink:href="#aKDpnZt4v" opacity="1" fill="#aaaaaa" fill-opacity="1"></use></g><g><use xlink:href="#beePkf1cD" opacity="1" fill="#aaaaaa" fill-opacity="1"></use></g><g><use xlink:href="#aW8ssLpcL" opacity="1" fill="#aaaaaa" fill-opacity="1"></use></g></g></g></svg>